/* XPM */
static char * xmonad16_xpm[] = {
"16 16 5 1",
" 	c None",
".	c #FFFFFF",
"+	c #A3A3A3",
"@	c #B5B5B5",
"#	c #F30900",
"                ",
"   ..       +   ",
"    ..     ++   ",
"     ..   ++    ",
"      ..@++     ",
"       ..+      ",
"       ...      ",
"      .. ..     ",
"     ..   ..    ",
"    ..     ..   ",
"   ..       .   ",
"   #  #         ",
"    #  #  ###   ",
"     #  #       ",
"    #  #  ###   ",
"   #  #         "};
